<svg xmlns="http://www.w3.org/2000/svg" width="297" height="222.052" viewBox="0 0 297 222.052">
  <g id="Group_1" data-name="Group 1" transform="translate(-31 -293)">
    <path id="Path_2" data-name="Path 2" d="M46.793,326.637s309.139,16.722,131.172,82.693c-87.822,32.555-64.791,49.005-5.578,60.883,11.492,2.305,24.565,4.466,38.467,6.535,58.012,8.635,113.36,17.309,99.219,34.789" fill="none" stroke="#fff" stroke-linecap="round" stroke-width="5" stroke-dasharray="20"/>
    <path id="iconmonstr-location-1" d="M14,0C8.753,0,4,4.254,4,9.5S8.336,21.015,14,30c5.664-8.985,10-15.25,10-20.5S19.249,0,14,0Zm0,13.75A3.75,3.75,0,1,1,17.75,10,3.75,3.75,0,0,1,14,13.75Z" transform="translate(27 293)" fill="#f75c36"/>
    <path id="iconmonstr-location-1-2" data-name="iconmonstr-location-1" d="M14,0C8.753,0,4,4.254,4,9.5S8.336,21.015,14,30c5.664-8.985,10-15.25,10-20.5S19.249,0,14,0Zm0,13.75A3.75,3.75,0,1,1,17.75,10,3.75,3.75,0,0,1,14,13.75Z" transform="translate(304 477)" fill="#f75c36"/>
  </g>
</svg>
